<svg width="417" height="542" viewBox="0 0 417 542" fill="none" xmlns="http://www.w3.org/2000/svg">
<path d="M68.0995 108.168C63.8098 90.6465 78.9238 74.4875 96.6929 77.5979L615.311 168.378C627.273 170.472 636 180.86 636 193.004V512.211C636 527.753 621.969 539.528 606.663 536.832L169.566 459.83C159.803 458.11 151.978 450.784 149.621 441.154L68.0995 108.168Z" fill="#FFC266"/>
<path d="M300 150C300 232.843 232.843 300 150 300C67.1573 300 0 232.843 0 150C0 67.1573 67.1573 0 150 0C232.843 0 300 67.1573 300 150ZM85.3194 150C85.3194 185.722 114.278 214.681 150 214.681C185.722 214.681 214.681 185.722 214.681 150C214.681 114.278 185.722 85.3194 150 85.3194C114.278 85.3194 85.3194 114.278 85.3194 150Z" fill="url(#paint0_linear_60_3)"/>
<defs>
<linearGradient id="paint0_linear_60_3" x1="263.7" y1="88.2" x2="150" y2="300" gradientUnits="userSpaceOnUse">
<stop stop-color="white" stop-opacity="0.1"/>
<stop offset="1" stop-color="white" stop-opacity="0.02"/>
</linearGradient>
</defs>
</svg>
