<svg width="54" height="56" viewBox="0 0 54 56" fill="none" xmlns="http://www.w3.org/2000/svg">
<path d="M51.433 25.2208V29.6213L47.5889 25.2208H45.5886V32.4178H47.413V27.6877L51.6 32.4178H53.2573V25.2208H51.433ZM38.6512 30.8131V29.5389H42.7358V28.0067H38.6512V26.8247H43.6061V25.2208H36.789V32.4178H43.7085V30.8131H38.6512ZM34.7701 25.2208H27.722V26.8347H32.019L27.555 31.1016V32.4178H34.9185V30.8032H30.3149L34.7701 26.5371V25.2208ZM23.878 25.2208V29.6213L20.034 25.2208H18.0336V32.4178H19.858V27.6877L24.045 32.4178H25.7024V25.2208H23.878ZM11.0962 30.8131V29.5389H15.1808V28.0067H11.0962V26.8247H16.0511V25.2208H9.23402V32.4178H16.1535V30.8131H11.0962ZM7.21509 25.2208H0.167039V26.8347H4.46406L0 31.1016V32.4178H7.36357V30.8032H2.75996L7.21509 26.5371V25.2208ZM37.1643 21.5712C34.9866 21.6483 32.9271 21.8459 30.8655 22.0397H36.8254C36.8543 22.0351 36.8825 22.0298 36.9113 22.0245L37.1643 21.5712ZM26.6304 55.6531C26.7184 55.6775 26.8545 55.673 26.926 55.6516C27.0112 55.6256 27.0085 55.5905 26.9198 55.5669C26.8435 55.5463 26.7081 55.5432 26.6235 55.5684C26.552 55.5905 26.5548 55.6325 26.6304 55.6531ZM25.0253 36.2757C24.9373 36.2513 24.8019 36.2551 24.7304 36.2765C24.6445 36.3024 24.6479 36.3375 24.7366 36.3612C24.8122 36.3826 24.9483 36.3849 25.0322 36.3597C25.1043 36.3383 25.1016 36.2956 25.0253 36.2757ZM24.1928 44.8065H47.171V49.6862C46.1144 49.7869 45.0572 49.8914 43.9965 50.0005C40.2494 50.3828 37.3815 51.1527 34.0675 51.738C33.9706 51.7532 33.9617 51.7914 34.0125 51.8196C34.0895 51.8471 34.2242 51.8501 34.3109 51.8318C38.5178 51.4236 42.7599 51.068 47.171 50.8856V51.7601C45.6807 51.6868 44.1869 51.6281 42.6891 51.5571L42.2773 51.5235C41.7315 51.4991 41.2063 51.5693 40.9444 51.7044C40.8598 51.7448 40.8097 51.7876 40.7849 51.8311C37.0007 52.0714 33.1588 52.2507 29.5863 52.7009C29.4055 52.7238 29.3092 52.7726 29.3388 52.8268C29.2714 52.8138 29.1821 52.81 29.103 52.8238C28.6768 52.9146 28.1998 52.9703 27.6973 53.0191C27.5873 53.0382 27.5275 53.0702 27.579 53.0977C27.6306 53.1328 27.755 53.1465 27.8533 53.1313C28.3675 53.0786 28.8707 53.0161 29.3319 52.9275C29.3814 52.9176 29.4144 52.9008 29.4234 52.8833C29.5258 52.9169 29.6887 52.9321 29.8495 52.9176C33.5416 52.765 37.1155 52.4255 40.8427 52.3514C39.0196 52.559 37.1547 52.7024 35.1928 52.8596C32.8247 53.0466 30.6469 53.3144 28.2596 53.4212C28.1351 53.422 28.0527 53.454 28.0657 53.4861C28.0815 53.5181 28.1833 53.5456 28.3056 53.5372C33.1959 53.3762 37.4826 52.5941 42.533 52.5933C42.7324 52.5941 42.931 52.5971 43.1269 52.6017C41.5686 52.8749 40.0391 53.1534 38.5144 53.4281C33.8675 53.5433 29.2412 53.7173 24.6713 53.9729C24.4479 53.9744 24.2678 54.0286 24.2733 54.0919C24.2781 54.1553 24.4678 54.2072 24.6905 54.2056C27.2834 54.2987 29.8929 54.3849 32.5064 54.4559C32.3235 54.4849 32.1421 54.5139 31.9585 54.5421C31.7771 54.552 31.5949 54.5635 31.4127 54.5742C29.732 54.5826 28.0513 54.6009 26.3644 54.636C25.7347 54.6291 25.2136 54.7703 25.1806 54.9534C25.1703 55.132 25.6378 55.2762 26.2448 55.2899C26.1465 55.3006 26.0488 55.3128 25.9505 55.322C25.8516 55.3304 25.7807 55.3654 25.8076 55.3937C25.8461 55.4257 25.9725 55.4463 26.0695 55.4379C26.4242 55.3967 26.772 55.3532 27.1212 55.3097C30.3239 55.3769 33.5313 55.3555 36.7388 55.3204C33.2873 55.531 29.7897 55.6752 26.2674 55.7325C26.3389 55.7103 26.3472 55.6722 26.2592 55.6485C26.1843 55.6279 26.0351 55.6287 25.9629 55.6508C25.8791 55.6752 25.8935 55.7142 25.9698 55.7348C25.9725 55.7355 25.9739 55.7355 25.9774 55.7363C24.087 55.7645 22.1897 55.7683 20.2883 55.7432C20.177 55.7401 20.0821 55.7683 20.0842 55.8034C20.0848 55.8118 20.1055 55.8172 20.1158 55.824H4.46131L12.625 41.1661C14.2817 40.8441 15.8765 40.4931 17.5888 40.1909C17.6851 40.1756 17.6947 40.1367 17.6432 40.1092C17.5662 40.081 17.4321 40.078 17.3455 40.097C15.9026 40.2367 14.4549 40.3687 12.9997 40.4923L13.3028 39.9482C16.2855 39.7682 19.2606 39.5812 22.0694 39.2279C22.2509 39.205 22.3464 39.1554 22.3176 39.1013C22.3849 39.1142 22.4736 39.1181 22.5533 39.1043C22.9789 39.0135 23.4566 38.9578 23.9591 38.909C24.0684 38.8899 24.1289 38.8586 24.0773 38.8304C24.0251 38.7961 23.9007 38.7823 23.8031 38.7968C23.2889 38.8495 22.785 38.9128 22.3237 39.0006C22.2749 39.0105 22.2419 39.0273 22.233 39.0448C22.1306 39.0112 21.9677 38.996 21.8068 39.0105C19.031 39.1249 16.3219 39.3454 13.564 39.479L13.6658 39.2974C14.58 39.2188 15.5094 39.1455 16.4636 39.0692C18.831 38.8815 21.0094 38.6137 23.3961 38.5069C23.5205 38.5061 23.6037 38.4741 23.5907 38.442C23.5748 38.4107 23.4724 38.3825 23.3501 38.3909C20.0168 38.5008 16.9599 38.8953 13.7545 39.1379L14.127 38.4687C18.4412 38.3543 22.7389 38.1925 26.9844 37.9552C27.2078 37.9537 27.3879 37.8995 27.3831 37.8362C27.3783 37.7728 27.1886 37.7209 26.9659 37.7232C24.3722 37.6301 21.7635 37.5431 19.1493 37.4722C19.3321 37.4432 19.5143 37.4142 19.6978 37.3867C19.8793 37.3768 20.0615 37.3646 20.2429 37.3547C21.9237 37.3455 23.6044 37.3272 25.2913 37.2929C25.921 37.299 26.4427 37.1586 26.4757 36.9747C26.486 36.7961 26.0179 36.6519 25.4116 36.6382C25.5099 36.6275 25.6068 36.6161 25.7058 36.6061C25.8048 36.5985 25.8756 36.5626 25.8488 36.5344C25.8096 36.5031 25.6831 36.4825 25.5869 36.4902C25.2322 36.5314 24.8837 36.5756 24.5345 36.6183C21.4143 36.5527 18.2893 36.5726 15.1643 36.6061L15.1705 36.5947C18.5402 36.3925 21.9519 36.2513 25.3889 36.1964C25.3174 36.2177 25.3092 36.2559 25.3972 36.2803C25.4721 36.3002 25.6206 36.3002 25.6934 36.278C25.7766 36.2528 25.7629 36.2139 25.6866 36.1933C25.6831 36.1926 25.6818 36.1926 25.679 36.1918C26.7878 36.175 27.9 36.1704 29.013 36.1712L24.1928 44.8065ZM25.3442 4.78054C25.2556 4.75612 25.1201 4.7607 25.0487 4.78206C24.9627 4.80724 24.9662 4.84234 25.0548 4.86676C25.1305 4.88736 25.2666 4.88965 25.3511 4.86447C25.4226 4.84311 25.4199 4.80114 25.3442 4.78054ZM29.0047 11.7547H7.95062V10.4354C7.95956 10.4347 7.96849 10.4339 7.97743 10.4331C11.7252 10.0501 14.5924 9.28094 17.9071 8.69569C18.0034 8.68043 18.013 8.64228 17.9614 8.61404C17.8851 8.58581 17.7504 8.58352 17.6638 8.60183C14.4666 8.91163 11.244 9.18556 7.95062 9.38471V8.81625C8.39606 8.83532 8.83945 8.85516 9.28558 8.87653L9.69734 8.9101C10.2425 8.93452 10.7683 8.86432 11.0302 8.7285C11.1148 8.68882 11.165 8.64532 11.1897 8.60183C14.9732 8.36224 18.8159 8.18293 22.3877 7.73273C22.5692 7.70984 22.6654 7.66101 22.6358 7.60683C22.7032 7.6198 22.7919 7.62362 22.8716 7.60989C23.2971 7.51908 23.7749 7.46262 24.2774 7.41378C24.3874 7.39547 24.4472 7.36342 24.3956 7.33595C24.3441 7.30085 24.2196 7.28712 24.1213 7.30162C23.6071 7.35427 23.104 7.4176 22.642 7.50535C22.5932 7.51603 22.5602 7.53282 22.5513 7.55037C22.4489 7.51679 22.2859 7.50077 22.1251 7.51603C18.433 7.66788 14.8591 8.00743 11.132 8.0822C12.955 7.87466 14.8199 7.7312 16.7818 7.57402C19.15 7.38707 21.3277 7.11848 23.7144 7.01166C23.8388 7.01166 23.922 6.97885 23.9089 6.94757C23.8931 6.91552 23.7914 6.88728 23.6683 6.89568C18.7781 7.05744 14.492 7.83956 9.44093 7.83956C9.24227 7.83956 9.04361 7.83574 8.8477 7.83117C10.4054 7.55876 11.9356 7.27949 13.4602 7.0048C18.1072 6.88958 22.7334 6.7156 27.3027 6.46075C27.5261 6.45922 27.7069 6.40504 27.7014 6.34171C27.6966 6.27762 27.5068 6.22649 27.2841 6.22802C24.6905 6.13493 22.0818 6.04871 19.4682 5.97775C19.6504 5.94799 19.8326 5.91975 20.0161 5.89152C20.1976 5.8816 20.3797 5.86939 20.5612 5.85947C22.2419 5.85107 23.9227 5.83277 25.6096 5.79767C26.2399 5.80453 26.761 5.66337 26.794 5.48024C26.8043 5.30169 26.3362 5.15672 25.7299 5.14374C25.8282 5.1323 25.9251 5.12085 26.0241 5.11093C26.1231 5.1033 26.1939 5.0682 26.1671 5.0392C26.1279 5.00792 26.0014 4.98732 25.9052 4.99571C25.5505 5.03691 25.2026 5.08041 24.8527 5.1239C21.6501 5.05599 18.4433 5.07812 15.2358 5.11322C18.6873 4.90262 22.1849 4.75764 25.7072 4.70118C25.6357 4.7233 25.6275 4.76146 25.7154 4.78511C25.7904 4.80571 25.9389 4.80495 26.0117 4.78283C26.0956 4.75764 26.0811 4.71949 26.0048 4.69889C26.0014 4.69813 26 4.69736 25.9973 4.6966C27.8877 4.66913 29.7842 4.66531 31.6863 4.69049C31.7977 4.69355 31.8925 4.66455 31.8905 4.62945C31.8884 4.59435 31.786 4.56689 31.6629 4.56765C25.3628 4.48524 19.1135 4.71796 13.0086 5.13763C12.6759 5.14145 12.3425 5.14603 12.0077 5.14908C12.0077 5.14832 12.0077 5.14679 12.0077 5.14603C11.9026 5.00868 11.6819 4.8866 11.3822 4.7874C13.5434 4.72712 15.693 4.65616 17.8501 4.57375C19.647 4.5852 21.4439 4.5974 23.2442 4.60656C23.504 4.60885 23.7206 4.55086 23.7268 4.46997C23.7343 4.3952 23.5198 4.33721 23.2469 4.33187C22.8056 4.32652 22.3643 4.325 21.9237 4.32042C22.2873 4.2258 22.5252 4.09151 22.5492 3.9412C22.574 3.79622 22.3911 3.66345 22.0838 3.5612C24.0306 3.42385 25.9595 3.27124 27.8416 3.06828C27.9523 3.05683 28.0107 3.02554 27.9715 2.9935C27.9324 2.96221 27.8182 2.94466 27.7096 2.95687C24.9723 3.0431 22.2701 3.17281 19.5603 3.27506C17.4211 3.09651 15.3286 2.90346 13.0162 2.83402C11.2818 2.78519 9.60316 2.8119 7.95062 2.8737V2.70812C15.561 2.59595 22.8716 2.1099 30.2895 1.69023C30.8628 1.67039 31.2773 1.52007 31.2086 1.35678C31.1412 1.19273 30.6119 1.07446 30.0406 1.0943C25.7429 1.09506 21.7807 1.37967 17.4321 1.66047C14.3353 1.85962 11.6138 2.00689 8.50399 2.14576C8.31701 2.15416 8.13622 2.15644 7.95062 2.16407V1.67115C8.29295 1.67649 8.6346 1.68488 8.97693 1.69023C9.09791 1.69252 9.19896 1.6681 9.20515 1.63376C9.21065 1.604 9.11716 1.57348 9.0058 1.57425C8.65316 1.56814 8.30258 1.55975 7.95062 1.55288V0.736427H48.796L38.4917 19.1936C35.6582 19.6064 33.2419 20.2038 30.5349 20.6815C30.4387 20.6975 30.4297 20.7357 30.4806 20.7632C30.5576 20.7914 30.6923 20.7944 30.7782 20.7761C33.1512 20.5457 35.5372 20.3351 37.9535 20.1573L37.7376 20.5442C37.6104 20.5724 37.495 20.606 37.4125 20.6487C37.3279 20.6891 37.2771 20.7319 37.2523 20.7754C33.4688 21.0157 29.6268 21.195 26.0543 21.6452C25.8729 21.6681 25.7773 21.717 25.8062 21.7711C25.7395 21.7582 25.6501 21.7543 25.5704 21.7681C25.1449 21.8589 24.6678 21.9146 24.1646 21.9634C24.0574 21.9817 23.9997 22.013 24.045 22.0397H23.2765L29.0047 11.7547ZM29.4275 35.4295H22.2296C22.2296 35.4318 22.2309 35.4341 22.2309 35.4364C22.2069 35.5867 21.9684 35.721 21.6047 35.8156C22.046 35.8202 22.4874 35.8217 22.9287 35.8263C23.2016 35.8316 23.416 35.8904 23.4085 35.9644C23.4023 36.0461 23.1851 36.1041 22.9259 36.1018C21.1256 36.0926 19.3287 36.0804 17.5318 36.069C16.8293 36.0957 16.1267 36.114 15.4249 36.1384L15.2351 36.4787C19.7899 36.2078 24.4142 36.0537 29.0755 36.0606L29.4275 35.4295ZM31.6602 21.8039C30.7542 21.8749 29.8777 21.9581 29.0047 22.0397H24.628C25.0335 21.9939 25.4322 21.942 25.8 21.8718C25.8495 21.8619 25.8825 21.8451 25.8907 21.8276C25.9938 21.8612 26.1561 21.8764 26.3176 21.8619C30.009 21.7093 33.5836 21.3698 37.31 21.2958C35.4877 21.5033 33.6221 21.6468 31.6602 21.8039ZM39.9669 55.2846C39.6321 55.2876 39.298 55.2922 38.966 55.296C35.0821 55.5631 31.1357 55.7416 27.159 55.824H35.1928C36.9918 55.7584 38.788 55.6958 40.5924 55.6462C40.2927 55.5471 40.0721 55.425 39.9669 55.2876C39.9669 55.2861 39.9669 55.2853 39.9669 55.2846Z" fill="white"/>
</svg>
